<svg xmlns="http://www.w3.org/2000/svg" version="1.1" xmlns:xlink="http://www.w3.org/1999/xlink" xmlns:svgjs="http://svgjs.dev/svgjs" width="1500" height="1500" viewBox="0 0 1500 1500"><g transform="matrix(1,0,0,1,-0.3236151603499593,-0.3236151603499593)"><svg viewBox="0 0 343 343" data-background-color="#6a2055" preserveAspectRatio="xMidYMid meet" height="1500" width="1500" xmlns="http://www.w3.org/2000/svg" xmlns:xlink="http://www.w3.org/1999/xlink"><g id="tight-bounds" transform="matrix(1,0,0,1,0.07400000000001228,0.07400000000001228)"><svg viewBox="0 0 342.8515585177538 342.8515585177538" height="342.8515585177538" width="342.8515585177538"><g><svg></svg></g><g><svg viewBox="0 0 342.8515585177538 342.8515585177538" height="342.8515585177538" width="342.8515585177538"><g><path d="M0 171.426c0-94.676 76.75-171.426 171.426-171.426 94.676 0 171.426 76.75 171.426 171.426 0 94.676-76.75 171.426-171.426 171.426-94.676 0-171.426-76.75-171.426-171.426zM171.426 341.209c93.769 0 169.784-76.015 169.783-169.783 0-93.769-76.015-169.784-169.783-169.784-93.769 0-169.784 76.015-169.784 169.784 0 93.769 76.015 169.784 169.784 169.783z" data-fill-palette-color="tertiary" fill="#f4e2de" stroke="transparent"></path><ellipse rx="164.56874808852183" ry="164.56874808852183" cx="171.4257792588769" cy="171.4257792588769" fill="#f4e2de" stroke="transparent" stroke-width="0" fill-opacity="1" data-fill-palette-color="tertiary"></ellipse></g><g transform="matrix(1,0,0,1,64.84655864529836,147.58766093118635)"><svg viewBox="0 0 213.15844122715708 47.6762366553811" height="47.6762366553811" width="213.15844122715708"><g><svg viewBox="0 0 213.15844122715708 47.6762366553811" height="47.6762366553811" width="213.15844122715708"><g><svg viewBox="0 0 213.15844122715708 47.6762366553811" height="47.6762366553811" width="213.15844122715708"><g transform="matrix(1,0,0,1,0,29.46582692877993)"><svg viewBox="0 0 213.15844122715708 18.210409726601178" height="18.210409726601178" width="213.15844122715708"><g id="textblocktransform"><svg viewBox="0 0 213.15844122715708 18.210409726601178" height="18.210409726601178" width="213.15844122715708" id="textblock"><g><svg viewBox="0 0 213.15844122715708 18.210409726601178" height="18.210409726601178" width="213.15844122715708"><g transform="matrix(1,0,0,1,0,0)"><svg width="213.15844122715708" viewBox="0 -35.8 419.02 35.8" height="18.210409726601178" data-palette-color="#6a2055"><path d="M26.7-2.15L31.55-2.15 31.55 0 0 0 0-2.15 4.85-2.15 4.85-34.95 10.75-34.95 10.75-5.6 26.7-5.6 26.7-2.15ZM28.3-2.15L33.15-2.15 33.15-34.95 39.05-34.95 39.05-2.15 43.9-2.15 43.9 0 28.3 0 28.3-2.15ZM80.05-2.15L85.84-2.15 85.84 0 74.7 0 71.2-7.95 53.7-7.95 50.2 0 39.05 0 39.05-2.15 44.85-2.15 59.3-34.95 65.59-34.95 80.05-2.15ZM56.1-13.4L68.8-13.4 62.45-27.8 56.1-13.4ZM125.29-2.15L130.14-2.15 130.14 0 119.39 0 119.39-27.3 107.19-3.05 103.89-3.05 91.74-27.3 91.74 0 80.99 0 80.99-2.15 85.84-2.15 85.84-34.95 95.04-34.95 105.59-13 116.14-34.95 125.29-34.95 125.29-2.15ZM130.14-2.15L143.84-2.15 143.84 0 130.14 0 130.14-2.15ZM179.99-2.15L185.79-2.15 185.79 0 174.64 0 171.14-7.95 153.64-7.95 150.14 0 138.99 0 138.99-2.15 144.79-2.15 159.24-34.95 165.54-34.95 179.99-2.15ZM156.04-13.4L168.74-13.4 162.39-27.8 156.04-13.4ZM198.99-2.15L211.13-2.15 211.13 0 180.94 0 180.94-2.15 193.09-2.15 193.09-29.55 182.49-29.55 182.49-34.95 209.59-34.95 209.59-29.55 198.99-29.55 198.99-2.15ZM211.13-2.15L215.98-2.15 215.98-34.95 221.88-34.95 221.88-17.9 237.88-34.95 245.38-34.95 231.33-19.65 244.03-2.1 244.03-2.15 248.88-2.15 248.88 0 238.58 0 226.98-15.3 221.88-9.8 221.88 0 211.13 0 211.13-2.15ZM246.33-2.15L251.18-2.15 251.18-34.95 257.08-34.95 257.08-2.15 261.93-2.15 261.93 0 246.33 0 246.33-2.15ZM261.93-2.15L266.78-2.15 266.78-34.95 272.68-34.95 292.98-8.85 292.98-34.95 298.88-34.95 298.88-2.15 303.73-2.15 303.73 0 292.48 0 272.68-25.5 272.68 0 261.93 0 261.93-2.15ZM328.98-2.15L335.23-2.15 335.23 0 303.73 0 303.73-2.15 310.13-2.15Q307.73-3.4 305.73-5.25L305.73-5.25 309.43-9.7Q314.73-5.1 320.43-5.1L320.43-5.1Q323.28-5.1 324.95-6.33 326.63-7.55 326.63-9.58 326.63-11.6 325.05-12.73 323.48-13.85 319.63-14.78 315.78-15.7 313.78-16.48 311.78-17.25 310.23-18.5L310.23-18.5Q307.13-20.85 307.13-25.7 307.13-30.55 310.65-33.18 314.18-35.8 319.38-35.8L319.38-35.8Q322.73-35.8 326.03-34.7 329.33-33.6 331.73-31.6L331.73-31.6 328.58-27.15Q327.03-28.55 324.38-29.45 321.73-30.35 319.15-30.35 316.58-30.35 314.93-29.3 313.28-28.25 313.28-26.13 313.28-24 314.93-22.88 316.58-21.75 321.95-20.45 327.33-19.15 330.05-16.8 332.78-14.45 332.78-10.2L332.78-10.2Q332.78-5.05 328.98-2.15L328.98-2.15ZM365.77-2.15L377.22-2.15 377.22 0 335.22 0 335.22-2.15 346.67-2.15Q342.57-4.5 340.2-8.6 337.82-12.7 337.82-17.75L337.82-17.75Q337.82-25.45 343.12-30.63 348.42-35.8 356.22-35.8 364.02-35.8 369.32-30.63 374.62-25.45 374.62-17.75L374.62-17.75Q374.62-12.75 372.25-8.6 369.87-4.45 365.77-2.15L365.77-2.15ZM365-26.7Q361.42-30.4 356.22-30.4 351.02-30.4 347.45-26.7 343.87-23 343.87-17.73 343.87-12.45 347.45-8.75 351.02-5.05 356.22-5.05 361.42-5.05 365-8.75 368.57-12.45 368.57-17.73 368.57-23 365-26.7ZM377.22-2.15L382.07-2.15 382.07-34.95 387.97-34.95 408.27-8.85 408.27-34.95 414.17-34.95 414.17-2.15 419.02-2.15 419.02 0 407.77 0 387.97-25.5 387.97 0 377.22 0 377.22-2.15Z" opacity="1" transform="matrix(1,0,0,1,0,0)" fill="#6a2055" class="wordmark-text-0" data-fill-palette-color="quaternary" id="text-0"></path></svg></g></svg></g></svg></g></svg></g><g transform="matrix(1,0,0,1,93.77769071053149,0)"><svg viewBox="0 0 25.603059806094095 25.16678624216283" height="25.16678624216283" width="25.603059806094095"><g><svg xmlns="http://www.w3.org/2000/svg" xmlns:xlink="http://www.w3.org/1999/xlink" version="1.1" x="0" y="0" viewBox="-345.9993836358223 257.9479943277313 99.75176572719312 98.0520056722687" enable-background="new -346 256 100 100" xml:space="preserve" height="25.16678624216283" width="25.603059806094095" class="icon-icon-0" data-fill-palette-color="quaternary" id="icon-0"><path d="M-246.455 327.152l-16.86-64.454c0 0-1.243-4.756-6.002-4.75l-72.96 0.08c0 0-4.759 0.004-3.515 4.761l15.835 60.538c7.148-15.684 15.203-33.301 15.795-34.599l0.423-0.924 21.84-0.021-1.048 2.253c-5.985 12.87-13.768 29.775-19.236 41.944l62.212-0.067C-249.97 331.912-245.211 331.906-246.455 327.152z" fill="#6a2055" data-fill-palette-color="quaternary"></path><path d="M-296.864 290.954l-14.839 0.015c-9.094 19.892-25.758 56.396-26.425 58.074-1.594 4.007 0.346 6.235 1.171 6.957h56.176l-1.875-4.804h-35.137c-0.044 0.002-0.107 0.005-0.184 0.005-1.988 0-3.998-1.204-4.006-3.894-0.002-0.629-0.004-1.579 13.149-30.369C-303.924 306.194-298.966 295.487-296.864 290.954z" fill="#6a2055" data-fill-palette-color="quaternary"></path></svg></g></svg></g><g></g></svg></g></svg></g></svg></g></svg></g><defs></defs></svg><rect width="342.8515585177538" height="342.8515585177538" fill="none" stroke="none" visibility="hidden"></rect></g></svg></g></svg>